<?xml version="1.0" encoding="UTF-8"?><svg id="Capa_1" xmlns="http://www.w3.org/2000/svg" viewBox="0 0 650.5 630"><defs><style>.cls-1{fill:#fff;}</style></defs><path class="cls-1" d="M483.4,131.27l-77.36,48.76c-.62.39-.99,1.08-.97,1.82l2.32,72.86c.03.89-.51,1.69-1.34,2l-261.91,98.75c-.62.23-1.3.16-1.86-.2l-68.32-44.25c-.5-.33-.84-.86-.93-1.45l-10.38-74.01c-.06-.42-.02-.88.21-1.23,4.11-6.31,45.43-40.43,52.71-47.38,4.67-4.45,25.22-23.59,26.59-27.36,3.05-8.4-9.45-32.19-9.94-43.43-.03-.62.26-1.2.73-1.61l37.09-32.66c.42-.37.67-.89.7-1.45l2.92-56.57c.07-1.45,1.56-2.36,2.9-1.79,8.85,3.74,35.61,20.07,39.96,21.51,12.48,4.14,34.95-1.2,49.1.3.35.04.68-.02,1.01-.16l54.38-24.63c.27-.12.55-.18.85-.18l5.21-.02c.43,0,.85.13,1.2.37l155.22,108.57c1.21.85,1.17,2.66-.08,3.45ZM313.82,153.58l-34.66-26.49c-.54-.41-1.21-.56-1.85-.36-9.12,2.97-53.91,37.14-68.48,40.23-14.87,3.15-20.95-6.31-33.42-8.13-2.94-.43-5.52-1.99-5.18,2.37,6.39,8.35,26.58,31.19,36.95,30.64,6.13-.33,46.01-21.49,58.57-25.35,15.33-4.71,31.15-7.41,47.05-9.23,1.85-.21,2.51-2.55,1.03-3.68ZM142.17,219.36c-.18-.39-.44-.79-.85-.93-2.48-.85-7.38,3.88-8.91,5.21-7.42,6.43-14.44,14.12-21.59,21.15-1.37,1.35-.38,3.66,1.54,3.56l39.36-2.15c1.47-.08,2.39-1.62,1.76-2.95l-11.31-23.89Z"/><path class="cls-1" d="M409.56,311.91l3.36,82.88c.09,2.1,1.17,4.04,2.92,5.21l71.13,47.65c3.58,2.4,3.93,7.53.71,10.4l-34.73,30.92c-.49.44-1.04.8-1.64,1.07l-5.7,2.61c-.83.38-1.73.58-2.65.6l-233.73,3.33c-3.62.05-6.61-2.83-6.68-6.45l-2.18-102.46c-.06-2.78,1.63-5.3,4.23-6.29l196.03-75.35c4.21-1.62,8.77,1.38,8.95,5.89Z"/><path class="cls-1" d="M568.77,118.93l6.59,253.67c.07,2.83-1.11,5.55-3.23,7.43l-55.46,49.18c-3.36,2.98-8.34,3.23-11.98.6l-54.43-39.24c-2.41-1.74-3.88-4.49-3.98-7.45l-5.89-169.98c-.1-2.96,1.14-5.78,3.41-7.68,11-9.19,44.04-32.17,49.75-36.23,21.26-15.12,47.22-34.88,69-48.03,2.14-1.29,2.91-3.54,6.22-2.27Z"/><path class="cls-1" d="M417.19,527.23l-90.32,86.86c-.65.63-1.68.64-2.35.03l-90.43-83.21c-1.14-1.04-.42-2.94,1.12-2.97l180.75-3.65c1.56-.03,2.35,1.87,1.22,2.95Z"/></svg>