<?xml version="1.0" encoding="UTF-8"?>
<svg id="Capa_1" xmlns="http://www.w3.org/2000/svg" viewBox="0 0 650.5 630">
    <defs>
        <style>.cls-1{fill:#fff;}</style>
    </defs>
    <path class="cls-1"
        d="M436.16,94.25l-53.94,34c-.43.27-.69.76-.67,1.27l1.62,50.8c.02.62-.36,1.18-.93,1.4l-182.62,68.85c-.43.16-.91.11-1.29-.14l-47.64-30.85c-.35-.23-.59-.6-.65-1.01l-7.24-51.6c-.04-.29-.02-.61.15-.86,2.87-4.4,31.67-28.19,36.76-33.04,3.26-3.1,17.59-16.45,18.54-19.08,2.13-5.86-6.59-22.45-6.93-30.28-.02-.44.18-.83.51-1.12l25.86-22.77c.29-.26.47-.62.49-1.01l2.03-39.44c.05-1.01,1.09-1.64,2.02-1.25,6.17,2.61,24.83,13.99,27.86,15,8.7,2.89,24.37-.84,34.23.21.24.03.48-.01.7-.11l37.92-17.17c.19-.08.39-.13.59-.13l3.63-.02c.3,0,.59.09.83.26l108.23,75.7c.85.59.82,1.85-.06,2.4ZM317.92,109.81l-24.17-18.47c-.37-.29-.84-.39-1.29-.25-6.36,2.07-37.59,25.9-47.75,28.05-10.37,2.2-14.61-4.4-23.31-5.67-2.05-.3-3.85-1.38-3.61,1.65,4.45,5.82,18.53,21.75,25.76,21.36,4.27-.23,32.08-14.98,40.84-17.67,10.69-3.28,21.72-5.17,32.81-6.44,1.29-.15,1.75-1.78.72-2.57ZM198.24,155.68c-.13-.27-.31-.55-.59-.65-1.73-.59-5.14,2.71-6.21,3.63-5.18,4.48-10.06,9.85-15.05,14.74-.96.94-.26,2.55,1.08,2.48l27.44-1.5c1.02-.06,1.67-1.13,1.23-2.06l-7.89-16.66Z" />
    <path class="cls-1"
        d="M384.67,220.2l2.34,57.79c.06,1.47.82,2.82,2.03,3.63l49.59,33.23c2.5,1.67,2.74,5.25.5,7.25l-24.22,21.56c-.34.3-.73.56-1.14.75l-3.98,1.82c-.58.27-1.21.41-1.85.42l-162.97,2.32c-2.53.04-4.61-1.97-4.66-4.5l-1.52-71.44c-.04-1.94,1.14-3.69,2.95-4.39l136.68-52.53c2.94-1.13,6.11.96,6.24,4.1Z" />
    <path class="cls-1"
        d="M495.68,85.65l4.6,176.87c.05,1.97-.77,3.87-2.25,5.18l-38.67,34.29c-2.34,2.08-5.81,2.25-8.35.42l-37.95-27.36c-1.68-1.21-2.7-3.13-2.77-5.2l-4.11-118.52c-.07-2.06.79-4.03,2.38-5.35,7.67-6.41,30.71-22.43,34.69-25.26,14.82-10.54,32.92-24.32,48.11-33.49,1.49-.9,2.03-2.47,4.34-1.58Z" />
    <path class="cls-1"
        d="M390,370.34l-62.98,60.56c-.45.44-1.17.45-1.64.02l-63.05-58.02c-.79-.73-.29-2.05.78-2.07l126.03-2.55c1.09-.02,1.64,1.3.85,2.05Z" />
    <path class="cls-1"
        d="M593.05,471.74c64.13-1.2,53.67,93.67-10.04,77.42-42.04-10.73-33.91-76.6,10.04-77.42ZM593.85,487.11c-24.3.84-29.31,41.29-4.86,47.56,36.55,9.37,41.14-48.81,4.86-47.56Z" />
    <path class="cls-1"
        d="M292.48,554.1l-48.63-43.69-1.14,41.53-15.05-.65-1.01-80.58,48.45,45.06-1.33-41.24c.85-2.56,14.34-2.71,16.5-.7l2.2,80.27Z" />
    <path class="cls-1"
        d="M137.22,551.05l-16.93-.97c-8.84-7.3-11.32-23.64-24.22-25.08l-.6,26.29-17.93-.85.16-77.81c19.15,1.35,49.6-4.88,55.87,20.23,3.39,13.58-1.1,22.66-10.86,31.8l14.51,26.4ZM95.08,510.96c11.12,1.13,23.62,2.14,22.18-12.86-1.14-11.95-13.79-8.81-22.16-9.37l-.03,22.23Z" />
    <path class="cls-1"
        d="M536.74,523.99c17.17,8.13,14.12,15.8-1.12,23.25-47.5,23.2-82.37-54.1-33.3-73.23,15.89-6.19,38.21-3.26,47.49,11.86l-10.36,9.13c-2.94.37-8.43-5.05-12.05-6.31-21.76-7.58-38.24,13.12-28.55,33.21,7.17,14.89,31.07,18.05,37.9,2.1Z" />
    <path class="cls-1"
        d="M329.97,492.66c-20.3,16.42-.4,54.27,24.83,40.81,3.1-1.65,5.91-7.05,8.28-6.4l9.57,9.06.48,2.48c-38.33,42.31-97.7-21.91-55.4-57.76,14.66-12.43,47.2-13.2,56.97,4.99l-11.59,10.13c-9.71-8.72-22.21-12.16-33.14-3.31Z" />
    <path class="cls-1"
        d="M180.97,469.08l36.8,82.47c-4.89-.04-10.97,1.26-15.62-.85-3.76-1.71-4.21-9.95-8.1-12.27-1.58-.94-8.64-.73-11.15-.82-5.64-.18-11.72.53-17.39.62l-5.96,12.21-16.69-.07,34.59-80.29,3.5-1.01ZM186.51,523.97c1.47-2.15-4.77-16.52-7.29-18.99l-6.37,17.25,13.66,1.74Z" />
    <path class="cls-1"
        d="M435.86,489.27c-1.31,1-2.22,3.66-2.16,5.33.4,12.05,31.53,10.27,35.24,29.48,6.19,32.05-41.41,36.73-54.69,12.73-.14-1.4,9.04-7.21,10.22-7.41,6.82-1.13,7.62,4.14,10.8,5.95,6.25,3.58,18.56,2.06,16.96-6.86-1.87-10.41-33.96-10.44-35.55-30.5-2.13-26.82,36.38-33.56,50.03-14.02l-10.37,8.77c-3.81.47-12.38-9.62-20.46-3.48Z" />
    <path class="cls-1"
        d="M66.05,487.81l-31.98.12-.53,15.2,28.71,2.42-.37,15.09-27.71-.74v31.85s-16.64.78-16.64.78l-2.25-80.89,47.68.82c4.78,1.48,1.78,11.27,3.08,15.34Z" />
    <path class="cls-1"
        d="M402.77,473.61l-1.27,75.59c-1.83,5.73-9.89,1.5-14.58,1.67l-.9-77.21,16.74-.05Z" />
    <path class="cls-1"
        d="M454.3,573.54c10.91-.62,24.66,5.46,25.58,17.84,1.08,14.45-5.4,25.93-20.76,26.59-34.91,1.48-28.37-43.09-4.83-44.42ZM464.89,610.28c15.93-9.77,4.99-36.15-14.49-29.04-17.45,6.37-4.89,40.92,14.49,29.04Z" />
    <path class="cls-1"
        d="M256.09,616.13c-7.54.03-8.57-1.06-10.38-7.97l-21-.25-3.61,7.62-7.91-.7,17.97-42.03c4.29-.16,8.45.47,10.37,4.67l14.56,38.65ZM241.42,600.36l-7.65-16.24-6.37,17.25,14.01-1.01Z" />
    <path class="cls-1"
        d="M292.41,581.82c-2.99,3.36-14.6-7.26-20.85-.65-8.29,8.77,9.36,9.8,14,11.52,19.33,7.19,8.05,29.93-14.8,23.78-11.57-3.11-9.63-13.25-3.09-11.09,3.13,1.04,9.68,11.92,17.16,4.08,8.68-9.1-10.98-11.99-15.3-14.22-7.55-3.91-9.33-13.19-3.42-19.49,8.63-9.21,31.43.29,26.29,6.07Z" />
    <path class="cls-1"
        d="M208.79,583.7c-3.24,3.64-18.71-9.78-27.83-.11-7.29,7.74-2.16,23.73,8.62,25.34,6,.9,11.21-6.8,17.62-1.77-5.89,11.61-25.45,11.58-32.9,1.43-12.81-17.44,3.39-41.72,23.99-35.85,3.02.86,13.79,7.26,10.5,10.96Z" />
    <path class="cls-1"
        d="M337.92,573.73l-.84,5.29-13.75,1.34c-2.22,2.48,1.34,28.64-.22,33.82-1.19,3.94-3.77,3.24-7.32,2.59l-.23-36.24-14.58-.38-.09-5.65c2.28-2.69,31.57-1.35,37.04-.78Z" />
    <path class="cls-1"
        d="M373.93,574.18l1.03,36.21,18.68-.26,1.32,6.96-27.54-.87-.73-39.55c.71-3.71,4.15-3.29,7.24-2.48Z" />
    <polygon class="cls-1"
        points="409.99 574.62 410.46 609.41 428.35 610.37 429.66 617.33 403.34 616.76 403.23 573.67 409.99 574.62" />
    <path class="cls-1"
        d="M353.22,617.35l-8.22-1.03.05-41.09,6.22-2.47c3.58.78,1.07,38.95,1.95,44.59Z" />
</svg>