<?xml version="1.0" encoding="UTF-8"?><svg id="Capa_1" xmlns="http://www.w3.org/2000/svg" viewBox="0 0 650.5 630"><defs><style>.cls-1{fill:#fff;}</style></defs><path class="cls-1" d="M323.06,251.33,331.62,251.26,310.39,252.27c-15.56.2-33.44,1.28-47.23,7.96-18.65,9.03-38.35,19.14-56.52,29.08-4.37,2.39-22.57,11.78-24.77,13.96-3.88,3.86-6.23,20.87-11.67,27.56l-14.27-2.04c-4.63.05-8.15,0-17.32,2.04-.65-.09-1.44.12-2.04,0l-49.93-43.82-.6-45.94c7.17-7.25,14.59-14.31,22-21.32,14.49-13.7,33.85-28.11,46.9-42.27,3.64-3.95,6.95-8.23,7.11-13.78.25-9.01-5.59-19.31-6.11-28.53.34-1.7.4-3.45,1.02-5.1,1.91-.85,3.39-2.9,5.1-4.08,8.92-6.18,24.42-20.46,32.14-28.49,1.19-1.24,2.43-2.41,3.07-4.06,1.64-21.35-1.09-43.07,1.47-64.26.28-.11.64-.99,1.51-.95,1.43.08,2.42.84,3.63,1.42,14.34,6.88,40.66,29.69,55.44,29.11,10.8-.43,41.57-5.82,51.19-10.04,15.74-6.91,31.82-18.82,47.86-26.53,3.58-1.72,11.5-5.92,14.65-6.85,1.82-.54,1.14-.36,2.02.6-2.05,7.16-2.93,16.38-5.91,23.13-2.19,4.96-6.93,8.27-9.39,13.03,5.51,1.32,10.83,3.11,16.32,4.6.32.09.7-.09,1.02,0,7.37,4.34,16.37,7.04,24.46,10.19.29.11.72-.12,1.02,0,5.56,4.35,13.07,6.54,19.25,9.79,9.53,5.01,22.62,15.23,31.7,18.74.35.14,0,1.02,2.04,1.02,5.55,4.35,11.16,8.95,17.32,12.23,9.17,7.44,18.37,15.09,27.52,22.42,2.04,2.04,4.04,4.17,6.11,6.11.35.32.68.68,1.02,1.02.56.54-1.02-1.02,2.04,2.04-.39.62-.71,1.36-1.02,2.04l-73.9-6.09c3.27,11.3,7.79,22.17,10.71,33.61.81,3.16,2.55,7.31,3.06,10.19.98,5.58,1.78,15.06,2.08,20.85,1.92,37.53-1.39,76.83-.21,114.53-15.23,7.45-29.49,16.98-43.96,25.85-56.75,34.78-137.5,83.39-178.46,136.43-6.16,7.98-11.12,16.84-16.41,25.4-33.58-28.79-31.93-73.99-31.1-114.69l2.6-24.91c66.69-40.58,136.49-76.03,206.06-111.36,1.18-1.07,1.23-3.72,1.35-5.29,1.47-19.82-.66-41.19-4.13-60.67l-6.4,43.04c-1.27,2.72-.37,5.45-2.76,7.34-3.21,2.53-30.48,13.26-35.43,14.56M252.75,165.73c8.62-8.9,16.35-18.65,24.45-28.03l-1.53-.52c-29.07,9.31-56.39,26.4-87.12,29.58,8.7,8.64,8.01,19.24,6.12,30.56,2.51.57,2.94-2.09,4.07-3.05,14.47-12.35,25.2-6.36,38.72-14.27,4.55-2.66,8.01-5.81,11.21-10.19.35-.33.68-.68,1.02-1.02l1.02-1.02c.69-.69,1.35-1.33,2.04-2.04ZM147.78,237.07l-21.89,11.22-7.66,20.36c4.8-2.53,28.07-8.92,30.07-12.21,2.27-3.72-.9-14.77-.53-19.37Z"/><path class="cls-1" d="M451.46,445.97c9.21-3.63,18.34-11.21,28.53-19.88l1.03-2.03c.07-26.51-.1-53.02-.05-79.54,0-5.07,0-10.14,0-15.2.05-42.98.05-85.98.04-128.96,2.02-1.85,3.29-4.39,6.21-5.51l68.19-41.36.06,286.93-1.03,4.07c-63.38,65.6-139,117.83-213.8,169.48-2.24.53-15.9-9.24-18.92-11.25-15.4-10.29-30.62-21.8-45.01-33.46-18.2-14.76-36.35-30.77-51.5-48.41,11.6-31.02,38.71-56.94,63.73-77.91,48.63-40.75,105.13-72.5,160.01-103.94l1.49,106.97"/></svg>