<?xml version="1.0" encoding="UTF-8"?><svg id="Capa_1" xmlns="http://www.w3.org/2000/svg" viewBox="0 0 650.5 630"><defs><style>.cls-1{letter-spacing:-.01em;}.cls-2{letter-spacing:0em;}.cls-3,.cls-4,.cls-5{fill:#fff;}.cls-6{letter-spacing:0em;}.cls-7{letter-spacing:0em;}.cls-8{letter-spacing:0em;}.cls-9{letter-spacing:-.03em;}.cls-4{font-size:117.01px;}.cls-4,.cls-5{font-family:Dubai-Bold, Dubai;font-weight:700;}.cls-5{font-size:72.66px;}</style></defs><path class="cls-3" d="M436.16,94.25l-53.94,34c-.43.27-.69.76-.67,1.27l1.62,50.8c.02.62-.36,1.18-.93,1.4l-182.62,68.85c-.43.16-.91.11-1.29-.14l-47.64-30.85c-.35-.23-.59-.6-.65-1.01l-7.24-51.6c-.04-.29-.02-.61.15-.86,2.87-4.4,31.67-28.19,36.76-33.04,3.26-3.1,17.59-16.45,18.54-19.08,2.13-5.86-6.59-22.45-6.93-30.28-.02-.44.18-.83.51-1.12l25.86-22.77c.29-.26.47-.62.49-1.01l2.03-39.44c.05-1.01,1.09-1.64,2.02-1.25,6.17,2.61,24.83,13.99,27.86,15,8.7,2.89,24.37-.84,34.23.21.24.03.48-.01.7-.11l37.92-17.17c.19-.08.39-.13.59-.13l3.63-.02c.3,0,.59.09.83.26l108.23,75.7c.85.59.82,1.85-.06,2.4ZM317.92,109.81l-24.17-18.47c-.37-.29-.84-.39-1.29-.25-6.36,2.07-37.59,25.9-47.75,28.05-10.37,2.2-14.61-4.4-23.31-5.67-2.05-.3-3.85-1.38-3.61,1.65,4.45,5.82,18.53,21.75,25.76,21.36,4.27-.23,32.08-14.98,40.84-17.67,10.69-3.28,21.72-5.17,32.81-6.44,1.29-.15,1.75-1.78.72-2.57ZM198.24,155.68c-.13-.27-.31-.55-.59-.65-1.73-.59-5.14,2.71-6.21,3.63-5.18,4.48-10.06,9.85-15.05,14.74-.96.94-.26,2.55,1.08,2.48l27.44-1.5c1.02-.06,1.67-1.13,1.23-2.06l-7.89-16.66Z"/><path class="cls-3" d="M384.67,220.2l2.34,57.79c.06,1.47.82,2.82,2.03,3.63l49.59,33.23c2.5,1.67,2.74,5.25.5,7.25l-24.22,21.56c-.34.3-.73.56-1.14.75l-3.98,1.82c-.58.27-1.21.41-1.85.42l-162.97,2.32c-2.53.04-4.61-1.97-4.66-4.5l-1.52-71.44c-.04-1.94,1.14-3.69,2.95-4.39l136.68-52.53c2.94-1.13,6.11.96,6.24,4.1Z"/><path class="cls-3" d="M495.68,85.65l4.6,176.87c.05,1.97-.77,3.87-2.25,5.18l-38.67,34.29c-2.34,2.08-5.81,2.25-8.35.42l-37.95-27.36c-1.68-1.21-2.7-3.13-2.77-5.2l-4.11-118.52c-.07-2.06.79-4.03,2.38-5.35,7.67-6.41,30.71-22.43,34.69-25.26,14.82-10.54,32.92-24.32,48.11-33.49,1.49-.9,2.03-2.47,4.34-1.58Z"/><path class="cls-3" d="M390,370.34l-62.98,60.56c-.45.44-1.17.45-1.64.02l-63.05-58.02c-.79-.73-.29-2.05.78-2.07l126.03-2.55c1.09-.02,1.64,1.3.85,2.05Z"/><text class="cls-4" transform="translate(19.05 520.59)"><tspan x="0" y="0">FRANCI</tspan><tspan class="cls-8" x="395.36" y="0">S</tspan><tspan class="cls-1" x="460.41" y="0">C</tspan><tspan x="526.28" y="0">O</tspan></text><text class="cls-5" transform="translate(164.99 608.38)"><tspan x="0" y="0">C</tspan><tspan class="cls-6" x="42" y="0">AS</tspan><tspan class="cls-7" x="130.21" y="0">TIL</tspan><tspan class="cls-9" x="230.7" y="0">L</tspan><tspan class="cls-2" x="266.59" y="0">O</tspan></text></svg>